{
  "accessors": [
    {
      "bufferView": 1,
      "componentType": 5126,
      "count": 65532,
      "max": [
        110.65609741210938,
        52.827880859375,
        7.611936569213867
      ],
      "min": [
        -54.494014739990234,
        -20.988338470458984,
        -7.227890491485596
      ],
      "type": "VEC3"
    },
    {
      "bufferView": 1,
      "byteOffset": 786384,
      "componentType": 5126,
      "count": 65532,
      "max": [
        0.9999971985816956,
        0.9997301697731018,
        1.0
      ],
      "min": [
        -0.999251127243042,
        -0.9999945163726807,
        -0.9999997615814209
      ],
      "type": "VEC3"
    },
    {
      "bufferView": 0,
      "componentType": 5125,
      "count": 343863,
      "type": "SCALAR"
    },
    {
      "bufferView": 1,
      "byteOffset": 1572768,
      "componentType": 5126,
      "count": 65532,
      "max": [
        110.63710021972656,
        52.74262237548828,
        7.197628974914551
      ],
      "min": [
        -54.04801559448242,
        -21.049697875976563,
        -9.586708068847656
      ],
      "type": "VEC3"
    },
    {
      "bufferView": 1,
      "byteOffset": 2359152,
      "componentType": 5126,
      "count": 65532,
      "max": [
        0.9999978542327881,
        0.9999391436576843,
        1.0
      ],
      "min": [
        -0.9999792575836182,
        -0.9999899864196777,
        -1.0
      ],
      "type": "VEC3"
    },
    {
      "bufferView": 0,
      "byteOffset": 1375452,
      "componentType": 5125,
      "count": 335172,
      "type": "SCALAR"
    },
    {
      "bufferView": 1,
      "byteOffset": 3145536,
      "componentType": 5126,
      "count": 65532,
      "max": [
        110.62557983398438,
        55.03974914550781,
        7.390348434448242
      ],
      "min": [
        -49.02164077758789,
        -16.680572509765625,
        -9.508771896362305
      ],
      "type": "VEC3"
    },
    {
      "bufferView": 1,
      "byteOffset": 3931920,
      "componentType": 5126,
      "count": 65532,
      "max": [
        0.9998491406440735,
        0.9999986886978149,
        1.0
      ],
      "min": [
        -0.9948151707649231,
        -0.9999968409538269,
        -1.0
      ],
      "type": "VEC3"
    },
    {
      "bufferView": 0,
      "byteOffset": 2716140,
      "componentType": 5125,
      "count": 349482,
      "type": "SCALAR"
    },
    {
      "bufferView": 1,
      "byteOffset": 4718304,
      "componentType": 5126,
      "count": 65532,
      "max": [
        110.61050415039063,
        55.04585266113281,
        8.692305564880371
      ],
      "min": [
        4.969268798828125,
        25.256370544433594,
        -9.512405395507813
      ],
      "type": "VEC3"
    },
    {
      "bufferView": 1,
      "byteOffset": 5504688,
      "componentType": 5126,
      "count": 65532,
      "max": [
        0.9999979138374329,
        0.999999463558197,
        1.0
      ],
      "min": [
        -0.9999295473098755,
        -0.999999463558197,
        -1.0
      ],
      "type": "VEC3"
    },
    {
      "bufferView": 0,
      "byteOffset": 4114068,
      "componentType": 5125,
      "count": 344256,
      "type": "SCALAR"
    },
    {
      "bufferView": 1,
      "byteOffset": 6291072,
      "componentType": 5126,
      "count": 65532,
      "max": [
        105.54991149902344,
        54.10980987548828,
        9.80158805847168
      ],
      "min": [
        -1.3385124206542969,
        12.32402229309082,
        -7.830083847045898
      ],
      "type": "VEC3"
    },
    {
      "bufferView": 1,
      "byteOffset": 7077456,
      "componentType": 5126,
      "count": 65532,
      "max": [
        0.9999991059303284,
        0.9999861121177673,
        1.0
      ],
      "min": [
        -0.9992574453353882,
        -0.9999778866767883,
        -1.0
      ],
      "type": "VEC3"
    },
    {
      "bufferView": 0,
      "byteOffset": 5491092,
      "componentType": 5125,
      "count": 337599,
      "type": "SCALAR"
    },
    {
      "bufferView": 1,
      "byteOffset": 7863840,
      "componentType": 5126,
      "count": 65532,
      "max": [
        94.44474792480469,
        54.880210876464844,
        10.880083084106445
      ],
      "min": [
        -7.812885284423828,
        16.437114715576172,
        -10.034798622131348
      ],
      "type": "VEC3"
    },
    {
      "bufferView": 1,
      "byteOffset": 8650224,
      "componentType": 5126,
      "count": 65532,
      "max": [
        0.9999728798866272,
        0.9999737739562988,
        1.0
      ],
      "min": [
        -0.9999842643737793,
        -0.9999819993972778,
        -1.0
      ],
      "type": "VEC3"
    },
    {
      "bufferView": 0,
      "byteOffset": 6841488,
      "componentType": 5125,
      "count": 333912,
      "type": "SCALAR"
    },
    {
      "bufferView": 1,
      "byteOffset": 9436608,
      "componentType": 5126,
      "count": 65532,
      "max": [
        101.33383178710938,
        55.173309326171875,
        10.961629867553711
      ],
      "min": [
        -29.69577407836914,
        -0.9420318603515625,
        -10.407386779785156
      ],
      "type": "VEC3"
    },
    {
      "bufferView": 1,
      "byteOffset": 10222992,
      "componentType": 5126,
      "count": 65532,
      "max": [
        0.9999997019767761,
        0.9995163083076477,
        1.0
      ],
      "min": [
        -0.9999876618385315,
        -0.9999977946281433,
        -0.9999998807907104
      ],
      "type": "VEC3"
    },
    {
      "bufferView": 0,
      "byteOffset": 8177136,
      "componentType": 5125,
      "count": 345657,
      "type": "SCALAR"
    },
    {
      "bufferView": 1,
      "byteOffset": 11009376,
      "componentType": 5126,
      "count": 65532,
      "max": [
        66.81034851074219,
        55.16999816894531,
        11.02787971496582
      ],
      "min": [
        -73.1832275390625,
        9.503971099853516,
        -10.606915473937988
      ],
      "type": "VEC3"
    },
    {
      "bufferView": 1,
      "byteOffset": 11795760,
      "componentType": 5126,
      "count": 65532,
      "max": [
        0.9999861121177673,
        0.9996434450149536,
        1.0
      ],
      "min": [
        -0.9999977946281433,
        -0.9999980330467224,
        -0.9999999403953552
      ],
      "type": "VEC3"
    },
    {
      "bufferView": 0,
      "byteOffset": 9559764,
      "componentType": 5125,
      "count": 338673,
      "type": "SCALAR"
    },
    {
      "bufferView": 1,
      "byteOffset": 12582144,
      "componentType": 5126,
      "count": 65532,
      "max": [
        33.78144454956055,
        54.994224548339844,
        11.039726257324219
      ],
      "min": [
        -73.76487731933594,
        -22.52823257446289,
        -10.632383346557617
      ],
      "type": "VEC3"
    },
    {
      "bufferView": 1,
      "byteOffset": 13368528,
      "componentType": 5126,
      "count": 65532,
      "max": [
        0.9998700022697449,
        0.9926735162734985,
        0.9999998807907104
      ],
      "min": [
        -0.9999179840087891,
        -0.9999949336051941,
        -0.9999999403953552
      ],
      "type": "VEC3"
    },
    {
      "bufferView": 0,
      "byteOffset": 10914456,
      "componentType": 5125,
      "count": 328236,
      "type": "SCALAR"
    },
    {
      "bufferView": 1,
      "byteOffset": 14154912,
      "componentType": 5126,
      "count": 65532,
      "max": [
        108.31703186035156,
        52.723785400390625,
        9.469111442565918
      ],
      "min": [
        -72.12623596191406,
        -26.68938446044922,
        -9.767806053161621
      ],
      "type": "VEC3"
    },
    {
      "bufferView": 1,
      "byteOffset": 14941296,
      "componentType": 5126,
      "count": 65532,
      "max": [
        0.9999865293502808,
        0.9999973177909851,
        1.0
      ],
      "min": [
        -0.9999884963035583,
        -0.9999876022338867,
        -0.9999999403953552
      ],
      "type": "VEC3"
    },
    {
      "bufferView": 0,
      "byteOffset": 12227400,
      "componentType": 5125,
      "count": 325455,
      "type": "SCALAR"
    },
    {
      "bufferView": 1,
      "byteOffset": 15727680,
      "componentType": 5126,
      "count": 65532,
      "max": [
        110.07087707519531,
        33.465877532958984,
        10.719701766967773
      ],
      "min": [
        -57.54775619506836,
        -14.624370574951172,
        -10.383699417114258
      ],
      "type": "VEC3"
    },
    {
      "bufferView": 1,
      "byteOffset": 16514064,
      "componentType": 5126,
      "count": 65532,
      "max": [
        0.9999989867210388,
        0.9999898672103882,
        1.0
      ],
      "min": [
        -0.9999295473098755,
        -0.9999770522117615,
        -1.0
      ],
      "type": "VEC3"
    },
    {
      "bufferView": 0,
      "byteOffset": 13529220,
      "componentType": 5125,
      "count": 349230,
      "type": "SCALAR"
    },
    {
      "bufferView": 1,
      "byteOffset": 17300448,
      "componentType": 5126,
      "count": 65532,
      "max": [
        107.20890045166016,
        54.92744064331055,
        10.890384674072266
      ],
      "min": [
        -59.669734954833984,
        -20.45098876953125,
        -10.783330917358398
      ],
      "type": "VEC3"
    },
    {
      "bufferView": 1,
      "byteOffset": 18086832,
      "componentType": 5126,
      "count": 65532,
      "max": [
        0.9999924302101135,
        0.9999843239784241,
        0.9999998807907104
      ],
      "min": [
        -0.9988998174667358,
        -0.9999997615814209,
        -0.9999999403953552
      ],
      "type": "VEC3"
    },
    {
      "bufferView": 0,
      "byteOffset": 14926140,
      "componentType": 5125,
      "count": 355053,
      "type": "SCALAR"
    },
    {
      "bufferView": 1,
      "byteOffset": 18873216,
      "componentType": 5126,
      "count": 65532,
      "max": [
        110.38812255859375,
        53.158477783203125,
        11.039726257324219
      ],
      "min": [
        -93.23170471191406,
        -36.64775085449219,
        -10.891183853149414
      ],
      "type": "VEC3"
    },
    {
      "bufferView": 1,
      "byteOffset": 19659600,
      "componentType": 5126,
      "count": 65532,
      "max": [
        0.985309898853302,
        0.9999849796295166,
        0.9999999403953552
      ],
      "min": [
        -0.9973495602607727,
        -0.9999750256538391,
        -0.9999984502792358
      ],
      "type": "VEC3"
    },
    {
      "bufferView": 0,
      "byteOffset": 16346352,
      "componentType": 5125,
      "count": 354192,
      "type": "SCALAR"
    },
    {
      "bufferView": 1,
      "byteOffset": 20445984,
      "componentType": 5126,
      "count": 65532,
      "max": [
        110.02232360839844,
        54.80725860595703,
        6.855428695678711
      ],
      "min": [
        -93.58509826660156,
        -49.02429962158203,
        -10.891797065734863
      ],
      "type": "VEC3"
    },
    {
      "bufferView": 1,
      "byteOffset": 21232368,
      "componentType": 5126,
      "count": 65532,
      "max": [
        0.9989430904388428,
        0.9999990463256836,
        0.999996542930603
      ],
      "min": [
        -0.9915331602096558,
        -0.999991238117218,
        -1.0
      ],
      "type": "VEC3"
    },
    {
      "bufferView": 0,
      "byteOffset": 17763120,
      "componentType": 5125,
      "count": 362994,
      "type": "SCALAR"
    },
    {
      "bufferView": 1,
      "byteOffset": 22018752,
      "componentType": 5126,
      "count": 65532,
      "max": [
        110.5814208984375,
        53.81772232055664,
        11.051900863647461
      ],
      "min": [
        -94.28031921386719,
        -49.43590545654297,
        -10.919832229614258
      ],
      "type": "VEC3"
    },
    {
      "bufferView": 1,
      "byteOffset": 22805136,
      "componentType": 5126,
      "count": 65532,
      "max": [
        0.9999997019767761,
        0.9999993443489075,
        0.9999997615814209
      ],
      "min": [
        -0.9999402761459351,
        -0.9999961256980896,
        -1.0
      ],
      "type": "VEC3"
    },
    {
      "bufferView": 0,
      "byteOffset": 19215096,
      "componentType": 5125,
      "count": 330792,
      "type": "SCALAR"
    },
    {
      "bufferView": 1,
      "byteOffset": 23591520,
      "componentType": 5126,
      "count": 65532,
      "max": [
        106.39332580566406,
        19.640953063964844,
        10.840950012207031
      ],
      "min": [
        -101.76963806152344,
        -55.173309326171875,
        -11.229196548461914
      ],
      "type": "VEC3"
    },
    {
      "bufferView": 1,
      "byteOffset": 24377904,
      "componentType": 5126,
      "count": 65532,
      "max": [
        0.99055016040802,
        0.94915771484375,
        0.9999415874481201
      ],
      "min": [
        -0.9999993443489075,
        -0.9999634623527527,
        -0.9999996423721313
      ],
      "type": "VEC3"
    },
    {
      "bufferView": 0,
      "byteOffset": 20538264,
      "componentType": 5125,
      "count": 354165,
      "type": "SCALAR"
    },
    {
      "bufferView": 1,
      "byteOffset": 25164288,
      "componentType": 5126,
      "count": 65532,
      "max": [
        8.522743225097656,
        46.74749755859375,
        10.716974258422852
      ],
      "min": [
        -106.41546630859375,
        -52.784095764160156,
        -10.412572860717773
      ],
      "type": "VEC3"
    },
    {
      "bufferView": 1,
      "byteOffset": 25950672,
      "componentType": 5126,
      "count": 65532,
      "max": [
        0.9726909399032593,
        0.9997361898422241,
        0.9999995231628418
      ],
      "min": [
        -0.999792218208313,
        -0.9994100332260132,
        -0.9999993443489075
      ],
      "type": "VEC3"
    },
    {
      "bufferView": 0,
      "byteOffset": 21954924,
      "componentType": 5125,
      "count": 363642,
      "type": "SCALAR"
    },
    {
      "bufferView": 1,
      "byteOffset": 26737056,
      "componentType": 5126,
      "count": 65532,
      "max": [
        31.180452346801758,
        48.03118896484375,
        11.044050216674805
      ],
      "min": [
        -110.01751708984375,
        -27.107009887695313,
        -10.619220733642578
      ],
      "type": "VEC3"
    },
    {
      "bufferView": 1,
      "byteOffset": 27523440,
      "componentType": 5126,
      "count": 65532,
      "max": [
        0.9995100498199463,
        0.99976646900177,
        0.9999997019767761
      ],
      "min": [
        -0.9998834729194641,
        -0.9999988675117493,
        -1.0
      ],
      "type": "VEC3"
    },
    {
      "bufferView": 0,
      "byteOffset": 23409492,
      "componentType": 5125,
      "count": 349635,
      "type": "SCALAR"
    },
    {
      "bufferView": 1,
      "byteOffset": 28309824,
      "componentType": 5126,
      "count": 65532,
      "max": [
        108.38955688476563,
        50.37458801269531,
        11.108322143554688
      ],
      "min": [
        -110.65609741210938,
        -50.552764892578125,
        -11.220684051513672
      ],
      "type": "VEC3"
    },
    {
      "bufferView": 1,
      "byteOffset": 29096208,
      "componentType": 5126,
      "count": 65532,
      "max": [
        0.9999865293502808,
        0.9999832510948181,
        0.9999991655349731
      ],
      "min": [
        -0.9999643564224243,
        -0.9999947547912598,
        -1.0
      ],
      "type": "VEC3"
    },
    {
      "bufferView": 0,
      "byteOffset": 24808032,
      "componentType": 5125,
      "count": 326667,
      "type": "SCALAR"
    },
    {
      "bufferView": 1,
      "byteOffset": 29882592,
      "componentType": 5126,
      "count": 65532,
      "max": [
        110.62358093261719,
        54.871788024902344,
        11.147886276245117
      ],
      "min": [
        -101.76850891113281,
        -55.171539306640625,
        -11.210617065429688
      ],
      "type": "VEC3"
    },
    {
      "bufferView": 1,
      "byteOffset": 30668976,
      "componentType": 5126,
      "count": 65532,
      "max": [
        0.9998696446418762,
        0.9996230006217957,
        1.0
      ],
      "min": [
        -0.999981701374054,
        -0.9999648928642273,
        -1.0
      ],
      "type": "VEC3"
    },
    {
      "bufferView": 0,
      "byteOffset": 26114700,
      "componentType": 5125,
      "count": 253335,
      "type": "SCALAR"
    },
    {
      "bufferView": 1,
      "byteOffset": 31455360,
      "componentType": 5126,
      "count": 65532,
      "max": [
        110.45912170410156,
        55.153663635253906,
        11.229196548461914
      ],
      "min": [
        -110.57563781738281,
        -12.419265747070313,
        -9.598508834838867
      ],
      "type": "VEC3"
    },
    {
      "bufferView": 1,
      "byteOffset": 32241744,
      "componentType": 5126,
      "count": 65532,
      "max": [
        0.9999290704727173,
        0.9999975562095642,
        1.0
      ],
      "min": [
        -0.9998661875724792,
        -0.9999439120292664,
        -0.9999999403953552
      ],
      "type": "VEC3"
    },
    {
      "bufferView": 0,
      "byteOffset": 27128040,
      "componentType": 5125,
      "count": 314046,
      "type": "SCALAR"
    },
    {
      "bufferView": 1,
      "byteOffset": 33028128,
      "componentType": 5126,
      "count": 65532,
      "max": [
        110.55674743652344,
        49.53507995605469,
        11.166023254394531
      ],
      "min": [
        -106.155517578125,
        10.492427825927734,
        -9.499740600585938
      ],
      "type": "VEC3"
    },
    {
      "bufferView": 1,
      "byteOffset": 33814512,
      "componentType": 5126,
      "count": 65532,
      "max": [
        0.9999819397926331,
        0.9999978542327881,
        1.0
      ],
      "min": [
        -0.9997547268867493,
        -0.9999997615814209,
        -1.0
      ],
      "type": "VEC3"
    },
    {
      "bufferView": 0,
      "byteOffset": 28384224,
      "componentType": 5125,
      "count": 247122,
      "type": "SCALAR"
    },
    {
      "bufferView": 1,
      "byteOffset": 34600896,
      "componentType": 5126,
      "count": 65533,
      "max": [
        110.65498352050781,
        54.99147033691406,
        11.021053314208984
      ],
      "min": [
        -110.48313903808594,
        -20.795547485351563,
        -9.414533615112305
      ],
      "type": "VEC3"
    },
    {
      "bufferView": 1,
      "byteOffset": 35387292,
      "componentType": 5126,
      "count": 65533,
      "max": [
        0.9999904632568359,
        0.9999778270721436,
        0.9999999403953552
      ],
      "min": [
        -0.9999977946281433,
        -0.999998152256012,
        -0.9999997615814209
      ],
      "type": "VEC3"
    },
    {
      "bufferView": 0,
      "byteOffset": 29372712,
      "componentType": 5125,
      "count": 227778,
      "type": "SCALAR"
    },
    {
      "bufferView": 1,
      "byteOffset": 36173688,
      "componentType": 5126,
      "count": 65534,
      "max": [
        109.56455993652344,
        53.829742431640625,
        11.206857681274414
      ],
      "min": [
        -110.61866760253906,
        -22.42718505859375,
        -10.390754699707031
      ],
      "type": "VEC3"
    },
    {
      "bufferView": 1,
      "byteOffset": 36960096,
      "componentType": 5126,
      "count": 65534,
      "max": [
        0.9999755024909973,
        0.9999898672103882,
        0.9999999403953552
      ],
      "min": [
        -0.9999761581420898,
        -0.9999977946281433,
        -1.0
      ],
      "type": "VEC3"
    },
    {
      "bufferView": 0,
      "byteOffset": 30283824,
      "componentType": 5125,
      "count": 190410,
      "type": "SCALAR"
    },
    {
      "bufferView": 1,
      "byteOffset": 37746504,
      "componentType": 5126,
      "count": 56661,
      "max": [
        110.56439208984375,
        53.56747817993164,
        10.803977966308594
      ],
      "min": [
        -110.65609741210938,
        -45.698936462402344,
        -10.635239601135254
      ],
      "type": "VEC3"
    },
    {
      "bufferView": 1,
      "byteOffset": 38426436,
      "componentType": 5126,
      "count": 56661,
      "max": [
        0.9990308284759521,
        0.9999812841415405,
        0.9999998211860657
      ],
      "min": [
        -0.9999792575836182,
        -0.9999996423721313,
        -1.0
      ],
      "type": "VEC3"
    },
    {
      "bufferView": 0,
      "byteOffset": 31045464,
      "componentType": 5125,
      "count": 160950,
      "type": "SCALAR"
    }
  ],
  "asset": {
    "extras": {
      "author": "Andrea Spognetta (Spogna) (https://sketchfab.com/spogna)",
      "license": "CC-BY-NC-4.0 (http://creativecommons.org/licenses/by-nc/4.0/)",
      "source": "https://sketchfab.com/3d-models/crimping-pliers-rawscan-no-texture-ec4fb4e75a6a465484defb15c6eb9101",
      "title": "Crimping Pliers .::RAWscan::.. NO TEXTURE"
    },
    "generator": "Sketchfab-16.31.0",
    "version": "2.0"
  },
  "bufferViews": [
    {
      "buffer": 0,
      "byteLength": 31689264,
      "name": "floatBufferViews",
      "target": 34963
    },
    {
      "buffer": 0,
      "byteLength": 39106368,
      "byteOffset": 31689264,
      "byteStride": 12,
      "name": "floatBufferViews",
      "target": 34962
    }
  ],
  "buffers": [
    {
      "byteLength": 70795632,
      "uri": "scene.bin"
    }
  ],
  "extensionsUsed": [
    "KHR_materials_specular"
  ],
  "materials": [
    {
      "doubleSided": true,
      "extensions": {
        "KHR_materials_specular": {
          "specularColorFactor": [
            1.0,
            1.0,
            1.0
          ],
          "specularFactor": 1.0
        }
      },
      "name": "Scene_-_Root",
      "pbrMetallicRoughness": {
        "baseColorFactor": [
          0.666,
          0.666,
          0.666,
          1.0
        ],
        "metallicFactor": 0.5,
        "roughnessFactor": 0.5
      }
    }
  ],
  "meshes": [
    {
      "name": "Object_0",
      "primitives": [
        {
          "attributes": {
            "NORMAL": 1,
            "POSITION": 0
          },
          "indices": 2,
          "material": 0,
          "mode": 4
        }
      ]
    },
    {
      "name": "Object_1",
      "primitives": [
        {
          "attributes": {
            "NORMAL": 4,
            "POSITION": 3
          },
          "indices": 5,
          "material": 0,
          "mode": 4
        }
      ]
    },
    {
      "name": "Object_2",
      "primitives": [
        {
          "attributes": {
            "NORMAL": 7,
            "POSITION": 6
          },
          "indices": 8,
          "material": 0,
          "mode": 4
        }
      ]
    },
    {
      "name": "Object_3",
      "primitives": [
        {
          "attributes": {
            "NORMAL": 10,
            "POSITION": 9
          },
          "indices": 11,
          "material": 0,
          "mode": 4
        }
      ]
    },
    {
      "name": "Object_4",
      "primitives": [
        {
          "attributes": {
            "NORMAL": 13,
            "POSITION": 12
          },
          "indices": 14,
          "material": 0,
          "mode": 4
        }
      ]
    },
    {
      "name": "Object_5",
      "primitives": [
        {
          "attributes": {
            "NORMAL": 16,
            "POSITION": 15
          },
          "indices": 17,
          "material": 0,
          "mode": 4
        }
      ]
    },
    {
      "name": "Object_6",
      "primitives": [
        {
          "attributes": {
            "NORMAL": 19,
            "POSITION": 18
          },
          "indices": 20,
          "material": 0,
          "mode": 4
        }
      ]
    },
    {
      "name": "Object_7",
      "primitives": [
        {
          "attributes": {
            "NORMAL": 22,
            "POSITION": 21
          },
          "indices": 23,
          "material": 0,
          "mode": 4
        }
      ]
    },
    {
      "name": "Object_8",
      "primitives": [
        {
          "attributes": {
            "NORMAL": 25,
            "POSITION": 24
          },
          "indices": 26,
          "material": 0,
          "mode": 4
        }
      ]
    },
    {
      "name": "Object_9",
      "primitives": [
        {
          "attributes": {
            "NORMAL": 28,
            "POSITION": 27
          },
          "indices": 29,
          "material": 0,
          "mode": 4
        }
      ]
    },
    {
      "name": "Object_10",
      "primitives": [
        {
          "attributes": {
            "NORMAL": 31,
            "POSITION": 30
          },
          "indices": 32,
          "material": 0,
          "mode": 4
        }
      ]
    },
    {
      "name": "Object_11",
      "primitives": [
        {
          "attributes": {
            "NORMAL": 34,
            "POSITION": 33
          },
          "indices": 35,
          "material": 0,
          "mode": 4
        }
      ]
    },
    {
      "name": "Object_12",
      "primitives": [
        {
          "attributes": {
            "NORMAL": 37,
            "POSITION": 36
          },
          "indices": 38,
          "material": 0,
          "mode": 4
        }
      ]
    },
    {
      "name": "Object_13",
      "primitives": [
        {
          "attributes": {
            "NORMAL": 40,
            "POSITION": 39
          },
          "indices": 41,
          "material": 0,
          "mode": 4
        }
      ]
    },
    {
      "name": "Object_14",
      "primitives": [
        {
          "attributes": {
            "NORMAL": 43,
            "POSITION": 42
          },
          "indices": 44,
          "material": 0,
          "mode": 4
        }
      ]
    },
    {
      "name": "Object_15",
      "primitives": [
        {
          "attributes": {
            "NORMAL": 46,
            "POSITION": 45
          },
          "indices": 47,
          "material": 0,
          "mode": 4
        }
      ]
    },
    {
      "name": "Object_16",
      "primitives": [
        {
          "attributes": {
            "NORMAL": 49,
            "POSITION": 48
          },
          "indices": 50,
          "material": 0,
          "mode": 4
        }
      ]
    },
    {
      "name": "Object_17",
      "primitives": [
        {
          "attributes": {
            "NORMAL": 52,
            "POSITION": 51
          },
          "indices": 53,
          "material": 0,
          "mode": 4
        }
      ]
    },
    {
      "name": "Object_18",
      "primitives": [
        {
          "attributes": {
            "NORMAL": 55,
            "POSITION": 54
          },
          "indices": 56,
          "material": 0,
          "mode": 4
        }
      ]
    },
    {
      "name": "Object_19",
      "primitives": [
        {
          "attributes": {
            "NORMAL": 58,
            "POSITION": 57
          },
          "indices": 59,
          "material": 0,
          "mode": 4
        }
      ]
    },
    {
      "name": "Object_20",
      "primitives": [
        {
          "attributes": {
            "NORMAL": 61,
            "POSITION": 60
          },
          "indices": 62,
          "material": 0,
          "mode": 4
        }
      ]
    },
    {
      "name": "Object_21",
      "primitives": [
        {
          "attributes": {
            "NORMAL": 64,
            "POSITION": 63
          },
          "indices": 65,
          "material": 0,
          "mode": 4
        }
      ]
    },
    {
      "name": "Object_22",
      "primitives": [
        {
          "attributes": {
            "NORMAL": 67,
            "POSITION": 66
          },
          "indices": 68,
          "material": 0,
          "mode": 4
        }
      ]
    },
    {
      "name": "Object_23",
      "primitives": [
        {
          "attributes": {
            "NORMAL": 70,
            "POSITION": 69
          },
          "indices": 71,
          "material": 0,
          "mode": 4
        }
      ]
    },
    {
      "name": "Object_24",
      "primitives": [
        {
          "attributes": {
            "NORMAL": 73,
            "POSITION": 72
          },
          "indices": 74,
          "material": 0,
          "mode": 4
        }
      ]
    }
  ],
  "nodes": [
    {
      "children": [
        1
      ],
      "matrix": [
        -1.0,
        1.1102230246251562e-16,
        1.7225464509177407e-16,
        0.0,
        1.1102230246251565e-16,
        1.0,
        -2.220446049250313e-16,
        0.0,
        -1.7225464509177405e-16,
        -2.220446049250313e-16,
        -1.0,
        0.0,
        0.0,
        0.0,
        0.0,
        1.0
      ],
      "name": "Sketchfab_model"
    },
    {
      "children": [
        2,
        3,
        4,
        5,
        6,
        7,
        8,
        9,
        10,
        11,
        12,
        13,
        14,
        15,
        16,
        17,
        18,
        19,
        20,
        21,
        22,
        23,
        24,
        25,
        26
      ],
      "name": "Geode"
    },
    {
      "mesh": 0,
      "name": "Object_2"
    },
    {
      "mesh": 1,
      "name": "Object_3"
    },
    {
      "mesh": 2,
      "name": "Object_4"
    },
    {
      "mesh": 3,
      "name": "Object_5"
    },
    {
      "mesh": 4,
      "name": "Object_6"
    },
    {
      "mesh": 5,
      "name": "Object_7"
    },
    {
      "mesh": 6,
      "name": "Object_8"
    },
    {
      "mesh": 7,
      "name": "Object_9"
    },
    {
      "mesh": 8,
      "name": "Object_10"
    },
    {
      "mesh": 9,
      "name": "Object_11"
    },
    {
      "mesh": 10,
      "name": "Object_12"
    },
    {
      "mesh": 11,
      "name": "Object_13"
    },
    {
      "mesh": 12,
      "name": "Object_14"
    },
    {
      "mesh": 13,
      "name": "Object_15"
    },
    {
      "mesh": 14,
      "name": "Object_16"
    },
    {
      "mesh": 15,
      "name": "Object_17"
    },
    {
      "mesh": 16,
      "name": "Object_18"
    },
    {
      "mesh": 17,
      "name": "Object_19"
    },
    {
      "mesh": 18,
      "name": "Object_20"
    },
    {
      "mesh": 19,
      "name": "Object_21"
    },
    {
      "mesh": 20,
      "name": "Object_22"
    },
    {
      "mesh": 21,
      "name": "Object_23"
    },
    {
      "mesh": 22,
      "name": "Object_24"
    },
    {
      "mesh": 23,
      "name": "Object_25"
    },
    {
      "mesh": 24,
      "name": "Object_26"
    }
  ],
  "scene": 0,
  "scenes": [
    {
      "name": "Sketchfab_Scene",
      "nodes": [
        0
      ]
    }
  ]
}
