{"extensionsUsed" : ["KHR_materials_specular", "KHR_materials_ior"], "accessors" : [{"bufferView" : 0, "byteOffset" : 0, "componentType" : 5123, "count" : 180, "type" : "SCALAR", "max" : [99], "min" : [0]}, {"bufferView" : 1, "byteOffset" : 0, "componentType" : 5126, "count" : 100, "type" : "VEC3", "max" : [0.02589503489434719, 0.013246501795947552, -0.0052999998442828655], "min" : [0.0014949999749660492, 0.010016500018537045, -0.02130000665783882], "name" : "POSITION"}, {"bufferView" : 1, "byteOffset" : 12, "componentType" : 5126, "count" : 100, "type" : "VEC3", "max" : [1.0000019073486328, 1.0000044107437134, 1.0000019073486328], "min" : [-1.0000019073486328, -1.0000044107437134, -1.0000019073486328], "name" : "NORMAL"}, {"bufferView" : 1, "byteOffset" : 24, "componentType" : 5126, "count" : 100, "type" : "VEC2", "max" : [0.9953609704971313, 1.9971569776535034], "min" : [0.003029000014066696, 1.0103790760040283], "name" : "TEXCOORD_0"}, {"bufferView" : 0, "byteOffset" : 360, "componentType" : 5123, "count" : 6228, "type" : "SCALAR", "max" : [2827], "min" : [0]}, {"bufferView" : 2, "byteOffset" : 0, "componentType" : 5126, "count" : 2828, "type" : "VEC3", "max" : [0.05055005103349686, 0.012216516770422459, -0], "min" : [0, 0, -0.02659994550049305], "name" : "POSITION"}, {"bufferView" : 2, "byteOffset" : 12, "componentType" : 5126, "count" : 2828, "type" : "VEC3", "max" : [1.0000019073486328, 1.0000044107437134, 1.0000019073486328], "min" : [-1.0000019073486328, -1.0000044107437134, -1.0000019073486328], "name" : "NORMAL"}, {"bufferView" : 2, "byteOffset" : 24, "componentType" : 5126, "count" : 2828, "type" : "VEC2", "max" : [2.0691990852355957, 1.9928579330444336], "min" : [-1.0997400283813477, 1.0062730312347412], "name" : "TEXCOORD_0"}], "asset" : {"generator" : "Aspose.3D 25.3.0", "version" : "2.0"}, "buffers" : [{"uri" : "data:application/octet-stream;base64,", "byteLength" : 106524}], "bufferViews" : [{"buffer" : 0, "byteOffset" : 0, "byteLength" : 12816, "target" : 34963}, {"buffer" : 0, "byteOffset" : 12820, "byteLength" : 3200, "byteStride" : 32, "target" : 34962}, {"buffer" : 0, "byteOffset" : 16024, "byteLength" : 90496, "byteStride" : 32, "target" : 34962}], "materials" : [{"name" : "object_0", "extensions" : {"KHR_materials_specular" : {"specularColorFactor" : [2, 2, 2]}, "KHR_materials_ior" : {"ior" : 1.4500000476837158}}, "pbrMetallicRoughness" : {"baseColorFactor" : [1, 1, 1, 1], "metallicFactor" : 1, "roughnessFactor" : 0}, "emissiveFactor" : [0, 0, 0], "alphaMode" : "OPAQUE", "doubleSided" : true}, {"name" : "object_1", "extensions" : {"KHR_materials_specular" : {"specularColorFactor" : [2, 2, 2]}, "KHR_materials_ior" : {"ior" : 1.4500000476837158}}, "pbrMetallicRoughness" : {"baseColorFactor" : [1, 1, 1, 1], "metallicFactor" : 1, "roughnessFactor" : 0}, "emissiveFactor" : [0, 0, 0], "alphaMode" : "OPAQUE", "doubleSided" : true}], "meshes" : [{"primitives" : [{"attributes" : {"POSITION" : 1, "NORMAL" : 2, "TEXCOORD_0" : 3}, "indices" : 0, "material" : 0, "mode" : 4}]}, {"primitives" : [{"attributes" : {"POSITION" : 5, "NORMAL" : 6, "TEXCOORD_0" : 7}, "indices" : 4, "material" : 1, "mode" : 4}]}], "nodes" : [{"matrix" : [0.009999999776482582, 0, 0, 0, 0, -1.3435885348189617E-09, 0.010000001120071118, 0, 0, -0.010000001120071118, -1.3435885348189617E-09, 0, 0, 0, 0, 1], "mesh" : 0, "name" : "object_0"}, {"matrix" : [0.009999999776482582, 0, 0, 0, 0, -1.3435885348189617E-09, 0.010000001120071118, 0, 0, -0.010000001120071118, -1.3435885348189617E-09, 0, 0, 0, 0, 1], "mesh" : 1, "name" : "object_1"}], "scene" : 0, "scenes" : [{"nodes" : [0, 1]}]}