{"accessors" : [{"bufferView" : 0, "byteOffset" : 0, "componentType" : 5123, "count" : 10224, "type" : "SCALAR", "max" : [10223], "min" : [0]}, {"bufferView" : 1, "byteOffset" : 0, "componentType" : 5126, "count" : 10224, "type" : "VEC3", "max" : [4.25, 2.8000001907348633, -0.07999999821186066], "min" : [-4.25, -2.8000001907348633, -1.1799999475479126], "name" : "POSITION"}, {"bufferView" : 1, "byteOffset" : 12, "componentType" : 5126, "count" : 10224, "type" : "VEC3", "max" : [1.0000044107437134, 1.0000044107437134, 1.0000044107437134], "min" : [-1.0000044107437134, -1.0000044107437134, -1.0000044107437134], "name" : "NORMAL"}, {"bufferView" : 1, "byteOffset" : 24, "componentType" : 5126, "count" : 10224, "type" : "VEC2", "max" : [7.800000190734863, 3.799999952316284], "min" : [-6.5, -1.7999999523162842], "name" : "TEXCOORD_0"}], "asset" : {"generator" : "Aspose.3D 25.3.0", "version" : "2.0"}, "buffers" : [{"uri" : "data:application/octet-stream;base64,", "byteLength" : 347624}], "bufferViews" : [{"buffer" : 0, "byteOffset" : 0, "byteLength" : 20448, "target" : 34963}, {"buffer" : 0, "byteOffset" : 20452, "byteLength" : 327168, "byteStride" : 32, "target" : 34962}], "materials" : [{"name" : "Steel - Satin", "pbrMetallicRoughness" : {"baseColorFactor" : [0.6274509803921569, 0.6274509803921569, 0.6274509803921569, 1], "metallicFactor" : 1, "roughnessFactor" : 1}, "emissiveFactor" : [0, 0, 0], "alphaMode" : "OPAQUE", "doubleSided" : false}], "meshes" : [{"primitives" : [{"attributes" : {"POSITION" : 1, "NORMAL" : 2, "TEXCOORD_0" : 3}, "indices" : 0, "material" : 0, "mode" : 4}], "name" : "Body1"}], "nodes" : [{"matrix" : [10, 0, 0, 0, 0, 10, 0, 0, 0, 0, 10, 0, 0, 0, 0, 1], "mesh" : 0, "name" : "Body1"}, {"children" : [0], "name" : "Halterung"}, {"children" : [1], "name" : "Halterung:1"}, {"children" : [2], "name" : "Halterung Raspberry Pi4 v2"}], "scene" : 0, "scenes" : [{"nodes" : [3]}]}